<?xml version="1.0" standalone="no"?>
<!DOCTYPE svg PUBLIC "-//W3C//DTD SVG 20010904//EN"
 "http://www.w3.org/TR/2001/REC-SVG-20010904/DTD/svg10.dtd">
<svg version="1.0" xmlns="http://www.w3.org/2000/svg"
 width="512.000000pt" height="512.000000pt" viewBox="0 0 512.000000 512.000000"
 preserveAspectRatio="xMidYMid meet">
<metadata>
Created by potrace 1.14, written by Peter Selinger 2001-2017
</metadata>
<g transform="translate(0.000000,512.000000) scale(0.100000,-0.100000)"
fill="#000000" stroke="none">
<path d="M1415 4353 c-67 -7 -224 -47 -291 -73 -325 -129 -575 -398 -683 -735
-32 -99 -43 -148 -57 -265 -9 -73 -9 -220 0 -295 38 -312 227 -672 541 -1031
161 -184 454 -458 673 -629 7 -5 18 -15 25 -21 98 -86 621 -452 697 -487 151
-70 312 -73 466 -7 81 35 424 272 659 455 630 490 1028 952 1207 1400 23 57
56 166 64 210 2 17 7 37 9 45 34 118 22 372 -24 552 -111 431 -448 764 -869
859 -85 19 -106 21 -237 24 -275 5 -510 -72 -740 -244 -64 -48 -211 -191 -263
-256 l-32 -40 -32 40 c-58 74 -223 230 -298 281 -139 96 -299 166 -452 200
-67 15 -290 25 -363 17z"/>
</g>
</svg>
